<svg xmlns="http://www.w3.org/2000/svg" viewBox="0 0 1000 1000" xml:space="preserve"><path d="M823.48 116.06c-.59 1.56-4.11 16.03-8.01 32.05s-7.23 29.51-7.82 29.9c-.39.39-14.46 4.1-31.08 8.01-16.81 4.1-31.08 7.82-31.47 8.4-.59.59 13.29 4.5 31.08 8.6l32.05 7.43 7.04 29.51c3.91 16.22 7.43 30.88 8.21 32.44.59 1.56 4.69-11.53 9.19-29.32l8.01-32.25 32.25-8.01c17.78-4.49 30.88-8.6 29.32-9.19-1.56-.78-16.22-4.3-32.44-8.21l-29.51-7.04-7.82-32.64c-4.31-17.96-8.41-31.25-9-29.68zM925.11 264.59c-1.76 5.86-3.71 13.09-4.3 16.03-1.17 4.5-2.93 5.47-15.24 8.6-7.82 1.76-14.86 3.71-15.83 4.3-1.17.59 5.08 2.93 13.68 5.08 17.2 4.5 15.64 2.54 22.48 28.54l2.35 8.79 1.76-6.84c.98-3.71 2.93-11.34 4.49-16.61l2.74-9.97 14.85-3.71c8.01-1.95 14.27-4.1 13.49-4.69-.59-.59-7.23-2.93-14.86-5.08l-14.07-3.91-3.13-12.7c-4.89-19.16-5.09-19.36-8.41-7.83zM277.6 274.37c-18.76 4.89-26.19 8.21-41.83 18.57-25.6 17-46.71 44.76-56.68 74.66-2.15 6.25-13.29 35.57-24.82 65.08l-20.91 53.75H88.22c-41.04 0-45.54.39-52.57 3.91-13.88 7.03-15.84 11.52-16.43 39.67-.59 22.67-.2 25.6 3.91 33.62 8.6 17 23.06 21.5 68.6 21.5h26.78l.2 67.82c0 37.53 0 86-.2 108.08-.2 46.91 1.95 65.08 9.58 81.11 8.01 16.81 17.79 27.17 33.03 34.59 12.51 6.25 13.88 6.45 41.43 7.23 21.89.39 31.47-.2 41.04-2.54 30.1-7.82 50.62-34.98 54.14-72.12l1.17-13.09h413.17l1.17 15.63c1.96 28.93 17.98 54.14 42.02 65.87 10.95 5.28 11.73 5.47 46.32 5.47 34.4 0 35.38-.2 46.12-5.47 12.51-6.06 26.58-20.13 33.23-32.83 9.38-18.57 9.58-20.91 9.58-143.65V585.72l33.81-1.17c37.92-1.17 46.32-2.93 55.31-11.92 8.6-8.6 11.14-19.35 10.16-45.54-.78-24.82-2.93-29.9-16.42-36.74-6.84-3.52-12.31-3.91-51.4-4.3-36.94-.39-44.17-.98-45.54-3.52-.98-1.56-13.49-30.69-27.95-64.89-14.46-34.01-29.32-66.84-32.64-72.71-3.52-5.86-13.1-17.79-21.11-26.19-22.28-23.65-44.76-37.53-71.92-44.56-14.07-3.52-23.26-3.71-223-3.52-196.21-.01-209.11.19-222.21 3.71zm407.9 39.09c16.22 2.93 40.26 15.83 54.92 29.12 22.08 20.33 28.34 31.66 57.26 103.98 14.27 36.16 26.78 68.8 27.36 72.7 3.91 20.13-4.1 24.04-41.83 21.11-32.64-2.54-96.35-7.04-145.8-10.36-48.86-3.13-219.29-3.13-267.76 0-48.86 3.13-111.01 7.62-143.07 10.36-19.54 1.56-27.36 1.56-32.83-.2-9.77-3.13-13.49-9.58-12.31-21.11 1.17-10.75 43.78-126.06 53.94-146 14.85-28.54 46.71-54.14 73.68-59.22 13.49-2.53 362.75-2.93 376.44-.38zM306.72 595.48c15.44 7.04 28.93 20.33 35.77 35.18 4.89 10.55 5.67 14.46 5.67 29.71 0 16.03-.59 18.96-6.45 30.69-12.51 25.6-34.79 39.28-63.91 39.48-13.49.19-17.39-.59-28.34-5.86-22.48-10.75-36.55-28.93-41.04-53.16-6.45-35.57 17.39-71.53 53.55-80.72 11.53-2.94 32.83-.79 44.75 4.68zm457.34 0c15.44 7.04 28.92 20.33 35.77 35.18 4.89 10.55 5.67 14.46 5.67 29.71 0 16.03-.59 18.96-6.45 30.69-12.51 25.41-34.99 39.28-63.91 39.48-13.49.19-17.4-.59-28.34-5.86-37.53-17.79-52.58-60.2-34.4-96.16 2.74-5.28 7.04-12.31 9.77-15.64 6.84-8.01 23.06-18.18 34.2-21.3 13.69-3.92 34.4-2.16 47.69 3.9zM43.07 344.14l-3.91 15.24-13.88 3.91c-7.62 2.15-14.46 4.5-15.24 5.08-.59.78 5.67 2.93 14.07 5.08l15.05 3.71 4.3 16.42 4.1 16.61 2.34-8.79c6.84-25.21 5.67-23.84 22.67-28.34 8.4-2.35 14.66-4.69 13.49-5.28-.98-.59-8.01-2.54-15.83-4.3l-13.88-3.52-3.32-13.88c-1.95-7.82-4.1-14.66-4.69-15.64-.78-.76-3.12 5.49-5.27 13.7z"/></svg>