<svg aria-hidden="true" style="width:0;height:0;position:absolute;overflow:hidden" xmlns="http://www.w3.org/2000/svg"><defs><symbol id="facebook" viewBox="0 0 32 32"><path fill="#1877f2" style="fill:var(--color1,#1877f2)" d="M31.997 15.999C31.997 7.163 24.834 0 15.998 0S-.001 7.163-.001 15.999c0 7.985 5.851 14.604 13.499 15.804v-11.18H9.436v-4.625h4.062v-3.525c0-4.01 2.389-6.225 6.043-6.225 1.75 0 3.581.313 3.581.313v3.937h-2.017c-1.987 0-2.607 1.233-2.607 2.498v3.001h4.437l-.709 4.625h-3.728v11.18c7.649-1.2 13.499-7.819 13.499-15.804z"/></symbol><symbol id="instagram" viewBox="0 0 32 32"><path fill="#e4405f" style="fill:var(--color2,#e4405f)" d="M16 0c-4.347 0-4.889.02-6.596.096C7.7.176 6.54.444 5.52.84c-1.052.408-1.945.956-2.835 1.845S1.246 4.466.84 5.52C.444 6.54.175 7.7.096 9.404.016 11.111 0 11.653 0 16s.02 4.889.096 6.596c.08 1.703.348 2.864.744 3.884a7.854 7.854 0 0 0 1.845 2.835A7.807 7.807 0 0 0 5.52 31.16c1.021.395 2.181.665 3.884.744 1.707.08 2.249.096 6.596.096s4.889-.02 6.596-.096c1.703-.08 2.864-.349 3.884-.744a7.867 7.867 0 0 0 2.835-1.845 7.799 7.799 0 0 0 1.845-2.835c.395-1.02.665-2.181.744-3.884.08-1.707.096-2.249.096-6.596s-.02-4.889-.096-6.596c-.08-1.703-.349-2.865-.744-3.884a7.859 7.859 0 0 0-1.845-2.835A7.786 7.786 0 0 0 26.48.84C25.46.444 24.299.175 22.596.096 20.889.016 20.347 0 16 0zm0 2.88c4.271 0 4.78.021 6.467.095 1.56.073 2.407.332 2.969.553.749.289 1.28.636 1.843 1.195a4.95 4.95 0 0 1 1.195 1.841c.219.563.48 1.409.551 2.969.076 1.688.093 2.195.093 6.467s-.02 4.78-.099 6.467c-.081 1.56-.341 2.407-.561 2.969-.299.749-.639 1.28-1.199 1.843a5.002 5.002 0 0 1-1.84 1.195c-.56.219-1.42.48-2.98.551-1.699.076-2.199.093-6.479.093-4.281 0-4.781-.02-6.479-.099-1.561-.081-2.421-.341-2.981-.561-.759-.299-1.28-.639-1.839-1.199a4.867 4.867 0 0 1-1.2-1.84c-.22-.56-.479-1.42-.56-2.98-.06-1.68-.081-2.199-.081-6.459 0-4.261.021-4.781.081-6.481.081-1.56.34-2.419.56-2.979.28-.76.639-1.28 1.2-1.841.559-.559 1.08-.919 1.839-1.197.56-.221 1.401-.481 2.961-.561 1.7-.06 2.2-.08 6.479-.08zm0 4.904A8.215 8.215 0 0 0 7.784 16c0 4.54 3.68 8.216 8.216 8.216 4.54 0 8.216-3.68 8.216-8.216 0-4.54-3.68-8.216-8.216-8.216zm0 13.549c-2.947 0-5.333-2.387-5.333-5.333s2.387-5.333 5.333-5.333 5.333 2.387 5.333 5.333-2.387 5.333-5.333 5.333zM26.461 7.46a1.921 1.921 0 0 1-3.84 0 1.92 1.92 0 0 1 3.84 0z"/></symbol><symbol id="whatsapp" viewBox="0 0 32 32"><path fill="#25d366" style="fill:var(--color3,#25d366)" d="M23.331 19.176c-.401-.2-2.356-1.156-2.72-1.288-.364-.135-.631-.2-.897.2-.263.393-1.028 1.285-1.259 1.549-.233.26-.465.28-.861.1-.4-.2-1.684-.62-3.204-1.98-1.184-1.06-1.979-2.36-2.213-2.76-.232-.4-.025-.62.173-.82.181-.18.401-.46.601-.697.195-.241.259-.401.396-.661.133-.28.065-.5-.033-.699-.1-.2-.896-2.16-1.229-2.941-.32-.779-.649-.68-.896-.68-.229-.02-.495-.02-.761-.02s-.697.099-1.063.479c-.364.4-1.393 1.36-1.393 3.3s1.427 3.82 1.625 4.1c.199.26 2.807 4.26 6.8 5.98.952.4 1.693.64 2.272.839.952.303 1.82.26 2.507.161.765-.121 2.356-.961 2.688-1.901.34-.94.34-1.72.24-1.9-.099-.18-.36-.28-.76-.46zM16.081 29h-.021c-2.36 0-4.699-.64-6.74-1.84l-.48-.285-5 1.3 1.34-4.86-.319-.5a13.156 13.156 0 0 1-2.021-7.013c0-7.26 5.94-13.18 13.256-13.18 3.539 0 6.86 1.38 9.361 3.88 2.5 2.479 3.879 5.8 3.879 9.32-.005 7.259-5.947 13.18-13.247 13.18zM27.36 4.599C24.32 1.66 20.32 0 16.06 0 7.284 0 .139 7.112.135 15.857c0 2.795.732 5.52 2.127 7.927L.001 32l8.447-2.203a16.087 16.087 0 0 0 7.613 1.929h.008c8.78 0 15.928-7.115 15.932-15.861 0-4.235-1.653-8.22-4.66-11.215z"/></symbol><symbol id="arrow" viewBox="0 0 24 24"><path d="M23 12c0-3.037-1.232-5.789-3.222-7.778S15.037 1 12 1 6.211 2.232 4.222 4.222 1 8.963 1 12s1.232 5.789 3.222 7.778S8.963 23 12 23s5.789-1.232 7.778-3.222S23 15.037 23 12zm-2 0c0 2.486-1.006 4.734-2.636 6.364S14.486 21 12 21s-4.734-1.006-6.364-2.636S3 14.486 3 12s1.006-4.734 2.636-6.364S9.514 3 12 3s4.734 1.006 6.364 2.636S21 9.514 21 12zM8 13h5.586l-2.293 2.293a.999.999 0 1 0 1.414 1.414l4-4a1.006 1.006 0 0 0 0-1.414l-4-4a.999.999 0 1 0-1.414 1.414L13.586 11H8a1 1 0 0 0 0 2z"/></symbol><symbol id="mail" viewBox="0 0 24 24"><path d="m3 7.921 8.427 5.899c.34.235.795.246 1.147 0L21 7.921V18c0 .272-.11.521-.295.705S20.272 19 20 19H4c-.272 0-.521-.11-.705-.295S3 18.272 3 18zM1 5.983V18c0 .828.34 1.579.88 2.12S3.172 21 4 21h16c.828 0 1.579-.34 2.12-.88S23 18.828 23 18V5.982a2.995 2.995 0 0 0-.88-2.102A2.998 2.998 0 0 0 20 3H4c-.828 0-1.579.34-2.12.88A2.995 2.995 0 0 0 1 5.983zm19.894-.429L12 11.779 3.106 5.554a.999.999 0 0 1 .188-.259A.994.994 0 0 1 4 5h16a1.016 1.016 0 0 1 .893.554z"/></symbol><symbol id="map-pin" viewBox="0 0 24 24"><path d="M22 10c0-2.761-1.12-5.263-2.929-7.071S14.761 0 12 0 6.737 1.12 4.929 2.929 2 7.239 2 10c0 .569.053 1.128.15 1.676.274 1.548.899 3.004 1.682 4.32 2.732 4.591 7.613 7.836 7.613 7.836.331.217.765.229 1.109 0 0 0 4.882-3.245 7.613-7.836.783-1.316 1.408-2.772 1.682-4.32A9.506 9.506 0 0 0 22 10zm-2 0c0 .444-.041.887-.119 1.328-.221 1.25-.737 2.478-1.432 3.646-1.912 3.214-5.036 5.747-6.369 6.74-1.398-.916-4.588-3.477-6.53-6.74-.695-1.168-1.211-2.396-1.432-3.646A7.713 7.713 0 0 1 4 10c0-2.209.894-4.208 2.343-5.657S9.791 2 12 2s4.208.894 5.657 2.343S20 7.791 20 10zm-4 0c0-1.104-.449-2.106-1.172-2.828a3.994 3.994 0 0 0-5.656 0 3.994 3.994 0 0 0 0 5.656 3.994 3.994 0 0 0 5.656 0A3.994 3.994 0 0 0 16 10zm-2 0c0 .553-.223 1.051-.586 1.414S12.553 12 12 12s-1.051-.223-1.414-.586S10 10.553 10 10s.223-1.051.586-1.414S11.447 8 12 8s1.051.223 1.414.586S14 9.447 14 10z"/></symbol><symbol id="menu" viewBox="0 0 24 24"><path d="M3 13h18a1 1 0 0 0 0-2H3a1 1 0 0 0 0 2zm0-6h18a1 1 0 0 0 0-2H3a1 1 0 0 0 0 2zm0 12h18a1 1 0 0 0 0-2H3a1 1 0 0 0 0 2z"/></symbol><symbol id="arrow-top" viewBox="0 0 24 24"><path d="M12.938 1.654a.999.999 0 0 0-1.877 0l-7 19a1 1 0 0 0 1.434 1.214L12 18.152l6.504 3.716a1 1 0 0 0 1.435-1.214zM12 4.893l5.113 13.877-4.617-2.638a1 1 0 0 0-.992 0L6.887 18.77z"/></symbol><symbol id="phone" viewBox="0 0 24 24"><path d="M23 16.92a3.006 3.006 0 0 0-2.598-3.023c-.8-.098-1.695-.314-2.586-.646a3.045 3.045 0 0 0-1.344-.174 2.987 2.987 0 0 0-1.819.855l-.72.72a14.84 14.84 0 0 1-4.583-4.589l.726-.726c.322-.33.563-.726.707-1.156a2.992 2.992 0 0 0-.039-2.011 11.591 11.591 0 0 1-.644-2.595 3.02 3.02 0 0 0-.963-1.804A2.982 2.982 0 0 0 7.11 1H4.114a2.998 2.998 0 0 0-2.989 3.277c.3 3.076 1.365 6.243 3.216 9.102 1.502 2.413 3.648 4.623 6.298 6.306 2.568 1.697 5.684 2.862 9.086 3.231a2.994 2.994 0 0 0 2.406-.874c.54-.544.873-1.297.87-2.121zm-2 0v3a.997.997 0 0 1-.996 1.008c-3.149-.336-5.961-1.391-8.263-2.912-2.428-1.543-4.359-3.537-5.702-5.694-1.697-2.62-2.655-5.481-2.924-8.238-.024-.268.064-.526.229-.724s.403-.33.678-.355L7.11 3a.995.995 0 0 1 .687.256c.17.154.288.366.323.608.142 1.072.408 2.117.757 3.025.081.216.08.447.01.658a1.049 1.049 0 0 1-.242.395L7.383 9.203a1.001 1.001 0 0 0-.162 1.201c1.584 2.785 3.839 4.957 6.381 6.378.397.222.882.144 1.195-.166l1.27-1.27a.984.984 0 0 1 .598-.279c.152-.015.31.005.459.06 1.022.381 2.07.636 3.034.754a.976.976 0 0 1 .615.355c.147.181.231.412.226.682z"/></symbol><symbol id="cross" viewBox="0 0 24 24"><path d="M5.293 6.707 10.586 12l-5.293 5.293a.999.999 0 1 0 1.414 1.414L12 13.414l5.293 5.293a.999.999 0 1 0 1.414-1.414L13.414 12l5.293-5.293a.999.999 0 1 0-1.414-1.414L12 10.586 6.707 5.293a.999.999 0 1 0-1.414 1.414z"/></symbol></defs></svg>