<?xml version="1.0" encoding="utf-8"?>
<!-- Svg Vector Icons : http://www.onlinewebfonts.com/icon -->
<!DOCTYPE svg PUBLIC "-//W3C//DTD SVG 1.1//EN" "http://www.w3.org/Graphics/SVG/1.1/DTD/svg11.dtd">
<svg version="1.1" xmlns="http://www.w3.org/2000/svg" xmlns:xlink="http://www.w3.org/1999/xlink" x="0px" y="0px" viewBox="0 0 1000 1000" enable-background="new 0 0 1000 1000" xml:space="preserve">
<metadata> Svg Vector Icons : http://www.onlinewebfonts.com/icon </metadata>
<g><g transform="translate(0.000000,511.000000) scale(0.100000,-0.100000)"><path d="M8234.8,3949.4c-5.9-15.6-41.1-160.3-80.1-320.5s-72.3-295.1-78.2-299c-3.9-3.9-144.6-41-310.8-80.1c-168.1-41-310.8-78.2-314.7-84c-5.9-5.9,132.9-45,310.8-86l320.5-74.3l70.4-295.1c39.1-162.2,74.3-308.8,82.1-324.4c5.9-15.6,46.9,115.3,91.9,293.2l80.1,322.5l322.5,80.1c177.8,44.9,308.8,86,293.2,91.9c-15.6,7.8-162.2,43-324.4,82.1l-295.1,70.4l-78.2,326.4C8281.7,3832.2,8240.7,3965.1,8234.8,3949.4z"/><path d="M9251.1,2464.1c-17.6-58.6-37.1-130.9-43-160.3c-11.7-45-29.3-54.7-152.4-86c-78.2-17.6-148.6-37.1-158.3-43c-11.7-5.9,50.8-29.3,136.8-50.8c172-45,156.4-25.4,224.8-285.4l23.5-87.9l17.6,68.4c9.8,37.1,29.3,113.4,44.9,166.1l27.4,99.7l148.5,37.1c80.1,19.5,142.7,41,134.9,46.9c-5.9,5.9-72.3,29.3-148.6,50.8l-140.7,39.1l-31.3,127C9286.3,2577.4,9284.3,2579.4,9251.1,2464.1z"/><path d="M2776,2366.3c-187.6-48.9-261.9-82.1-418.3-185.7c-256-170-467.1-447.6-566.8-746.6c-21.5-62.5-132.9-355.7-248.2-650.8l-209.1-537.5H882.2c-410.4,0-455.4-3.9-525.7-39.1C217.7,136.3,198.1,91.4,192.2-190.1c-5.9-226.7-2-256,39.1-336.2c86-170,230.6-215,686-215h267.8l2-678.2c0-375.3,0-860-2-1080.8c-2-469.1,19.5-650.8,95.8-811.1c80.1-168.1,177.9-271.7,330.3-345.9c125.1-62.5,138.8-64.5,414.3-72.3c218.9-3.9,314.7,2,410.4,25.4c301,78.2,506.2,349.8,541.4,721.2l11.7,130.9h2065.9h2065.8l11.7-156.3c19.6-289.3,179.8-541.4,420.2-658.7c109.5-52.8,117.3-54.7,463.2-54.7c344,0,353.8,2,461.2,54.7c125.1,60.6,265.8,201.3,332.3,328.3c93.8,185.7,95.8,209.1,95.8,1436.5v1155.1l338.1,11.7c379.2,11.7,463.2,29.3,553.1,119.2c86,86,111.4,193.5,101.6,455.4c-7.8,248.2-29.3,299-164.2,367.4c-68.4,35.2-123.1,39.1-514,43c-369.4,3.9-441.7,9.8-455.4,35.2c-9.8,15.6-134.9,306.9-279.5,648.9c-144.6,340.1-293.2,668.4-326.4,727.1c-35.2,58.6-131,177.9-211.1,261.9c-222.8,236.5-447.6,375.3-719.2,445.6c-140.7,35.2-232.6,37.1-2230,35.2C3036,2403.5,2907,2401.5,2776,2366.3z M6855,1975.4c162.2-29.3,402.6-158.3,549.2-291.2c220.8-203.3,283.4-316.6,572.6-1039.8c142.7-361.6,267.8-688,273.6-727c39.1-201.3-41-240.4-418.3-211.1c-326.4,25.4-963.5,70.4-1458,103.6c-488.6,31.3-2192.9,31.3-2677.6,0c-488.6-31.3-1110.1-76.2-1430.7-103.6c-195.4-15.6-273.6-15.6-328.3,2c-97.7,31.3-134.9,95.8-123.1,211.1c11.7,107.5,437.8,1260.6,539.4,1460c148.5,285.4,467.1,541.4,736.8,592.2C3225.5,1996.9,6718.1,2000.9,6855,1975.4z M3067.2-844.8c154.4-70.4,289.3-203.3,357.7-351.8c48.9-105.5,56.7-144.6,56.7-297.1c0-160.3-5.9-189.6-64.5-306.9c-125.1-256-347.9-392.8-639.1-394.8c-134.9-1.9-173.9,5.9-283.4,58.6c-224.8,107.5-365.5,289.3-410.4,531.6c-64.5,355.7,173.9,715.3,535.5,807.2C2735-768.6,2948-790.1,3067.2-844.8z M7640.6-844.8c154.4-70.4,289.2-203.3,357.7-351.8c48.9-105.5,56.7-144.6,56.7-297.1c0-160.3-5.9-189.6-64.5-306.9c-125.1-254.1-349.9-392.8-639.1-394.8c-134.9-1.9-174,5.9-283.4,58.6c-375.3,177.9-525.8,602-344,961.6c27.4,52.8,70.4,123.1,97.7,156.4c68.4,80.1,230.6,181.8,342,213C7300.6-766.6,7507.7-784.2,7640.6-844.8z"/><path d="M430.7,1668.6l-39.1-152.4l-138.8-39.1c-76.2-21.5-144.6-45-152.4-50.8c-5.9-7.8,56.7-29.3,140.7-50.8l150.5-37.1l43-164.2l41-166.1l23.4,87.9c68.4,252.1,56.7,238.4,226.7,283.4c84,23.5,146.6,46.9,134.9,52.8c-9.8,5.9-80.1,25.4-158.3,43l-138.8,35.2l-33.2,138.8c-19.5,78.2-41,146.6-46.9,156.4C475.6,1813.2,452.2,1750.7,430.7,1668.6z"/></g></g>
</svg>